<svg width="70" height="88" viewBox="0 0 70 88" fill="none" xmlns="http://www.w3.org/2000/svg">
<rect x="5.2525" width="64.7475" height="87.4222" rx="3.76068" fill="#715AFF"/>
<rect x="1.84213" width="65.7436" height="87.4222" rx="3.76068" fill="white"/>
<rect width="64.7475" height="87.4222" rx="3.76068" fill="#715AFF"/>
<rect x="15.5456" y="18.6568" width="38.5977" height="50.0477" rx="2.18772" stroke="white" stroke-width="1.84678"/>
<rect x="19.2889" y="23.0225" width="31.1111" height="9.33334" rx="1.55556" fill="white"/>
<rect x="37.9556" y="56.3105" width="12.4444" height="3.11111" rx="0.933334" fill="white"/>
<rect x="37.9556" y="39.8223" width="12.4444" height="3.11111" rx="0.933334" fill="white"/>
<rect x="37.9556" y="44.4883" width="12.4444" height="3.11111" rx="0.933334" fill="white"/>
<rect x="23.9556" y="64.0898" width="12.4444" height="3.11111" rx="0.933334" transform="rotate(-90 23.9556 64.0898)" fill="white"/>
<rect x="19.2889" y="56.3105" width="12.4444" height="3.11111" rx="0.933334" fill="white"/>
<rect x="28.8994" y="47.5869" width="12.4444" height="3.11111" rx="0.933334" transform="rotate(-135 28.8994 47.5869)" fill="white"/>
<rect x="20.0999" y="45.3877" width="12.4444" height="3.11111" rx="0.933334" transform="rotate(-45 20.0999 45.3877)" fill="white"/>
</svg>
